<?xml version="1.0" encoding="UTF-8" standalone="no"?>
<!-- Created with Inkscape (http://www.inkscape.org/) -->

<svg
   width="40.418549mm"
   height="34.869904mm"
   viewBox="0 0 40.418549 34.869904"
   version="1.1"
   id="svg5"
   xml:space="preserve"
   xmlns="http://www.w3.org/2000/svg"
   xmlns:svg="http://www.w3.org/2000/svg"><defs
     id="defs2" /><g
     id="layer1"
     style="display:inline;fill:#CF6700;fill-opacity:1"
     transform="matrix(0.54862492,0,0,0.55719188,-36.869371,-26.18901)"><path
       id="path479"
       style="display:inline;opacity:1;fill:#CF6700;fill-opacity:1;stroke-width:0.234863"
       d="m 98.898873,47.001782 c -0.193307,0.0063 -0.549019,0.09908 -0.913123,0.607198 -0.540147,0.753806 -0.597896,2.653585 -0.597896,2.653585 0,0 -0.214943,0.537848 -0.315743,-0.485242 -0.07897,-0.801718 0.08803,-0.944939 0.164331,-0.969449 -0.15659,0.0298 -0.757782,0.241955 -0.360185,1.728059 0.454376,1.69839 -0.296106,-0.168465 -0.296106,-0.168465 0,0 -0.345924,-0.408346 0.0155,0.978752 0.36144,1.387097 -0.820621,0.65474 -0.820621,0.65474 l 0.979785,1.416968 c 0,0 -0.902226,0.743952 -1.577682,-0.93586 -0.675453,-1.679823 0.351627,2.419312 1.226282,2.583305 0.874663,0.164038 0.708717,1.543701 -0.163814,0.874882 -0.872533,-0.668817 -0.68678,-1.634526 -0.68678,-1.634526 0,0 -0.712807,1.05409 0.526066,2.196765 0.541017,0.499007 0.858023,0.994527 0.992187,1.34152 a 20.205367,15.923968 31.608482 0 0 -0.514697,0.08113 c -0.06285,-0.06373 -0.121376,-0.123906 -0.177767,-0.182417 a 4.2094951,5.285255 58.747646 0 0 -0.420129,-1.089856 4.2094951,5.285255 58.747646 0 0 -2.06344,-1.547193 0.95084631,0.95084631 0 0 1 0.607198,0.841809 l 5.17e-4,0.0031 a 0.95084631,0.95084631 0 0 1 -0.910539,0.98857 0.95084631,0.95084631 0 0 1 -0.989604,-0.910022 0.95084631,0.95084631 0 0 1 0.909506,-0.99012 0.95084631,0.95084631 0 0 1 0.250114,0.02739 4.2094951,5.285255 58.747646 0 0 -1.18184,-0.194303 4.2094951,5.285255 58.747646 0 0 -0.337448,0.0021 4.2094951,5.285255 58.747646 0 0 -2.986897,0.921907 4.2094951,5.285255 58.747646 0 0 -2.334225,6.340699 4.2094951,5.285255 58.747646 0 0 0.284221,0.392741 5.5065055,8.9474678 63.403509 0 1 4.257104,-3.329513 5.5065055,8.9474678 63.403509 0 1 4.360457,-1.328084 c 0.02337,0.05274 0.0474,0.105193 0.07286,0.157096 a 20.205367,15.923968 31.608482 0 0 -7.314799,3.38739 20.205367,15.923968 31.608482 0 0 -0.799434,20.364132 13.356725,16.212875 53.532257 0 0 -4.436939,2.450496 13.356725,16.212875 53.532257 0 0 -1.061434,0.849044 l -0.586527,0.724504 a 0.71372688,2.0054624 16.476858 0 1 -0.109554,1.165303 2.26845,2.26845 0 0 1 1.701188,1.701705 1.5375037,3.1995394 37.538646 0 1 -0.819071,2.794662 1.5375037,3.1995394 37.538646 0 1 -3.100586,1.994193 4.2110653,2.1200082 70.002514 0 1 -2.684591,-2.880961 4.2110653,2.1200082 70.002514 0 1 -0.06305,-4.766634 2.3524747,2.4460189 0 0 1 0.12299,-0.159163 0.71372688,2.0054624 53.191226 0 1 0.736389,-0.73794 0.71372688,2.0054624 53.191226 0 1 1.87017,-0.888318 0.71372688,2.0054624 53.191226 0 1 0.273885,0.07441 0.71372688,2.0054624 53.191226 0 1 0.09974,0.346232 0.71372688,2.0054624 31.923464 0 1 0.449585,-0.112138 0.71372688,2.0054624 31.923464 0 1 0.231511,0.445968 0.71372688,2.0054624 31.923464 0 1 0.503328,-0.145211 0.71372688,2.0054624 31.923464 0 1 0.227377,0.554488 0.71372688,2.0054624 16.476858 0 1 0.178283,-0.05116 0.71372688,2.0054624 16.476858 0 1 0.338998,0.37362 l 0.505395,-0.619083 c -1.466833,-2.263759 -2.740905,-3.099547 -3.75946,-7.649146 -0.09927,-0.443369 -0.186936,-0.878489 -0.271302,-1.306897 l -0.154512,1.212846 -3.80752,2.91145 -0.254248,-0.681612 2.840137,-3.68608 1.302246,-0.131258 c -0.791074,-4.08784 -1.210524,-7.079072 -5.248775,-4.130497 -1.89278,1.382026 -3.611935,4.938649 -4.632792,9.184452 l 1.016475,-0.306441 2.321306,1.133264 -0.270785,0.648539 -2.568835,-0.496093 -0.529167,-0.847494 c -0.479084,2.027849 -0.799031,4.208393 -0.902787,6.381523 l 0.780314,-0.708484 2.676322,-0.02067 -0.05943,0.748792 -2.533178,0.655257 -0.869198,-0.555522 c -0.0418,0.947961 -0.04175,1.893913 0.0036,2.824634 l 0.82889,-0.752926 2.582788,0.02635 0.03359,0.702283 -2.532662,0.655257 -0.910539,-0.581876 c 0.112365,2.218854 0.488097,4.348667 1.188558,6.210473 l 0.515214,-0.86558 2.595191,-0.91674 0.28422,0.802018 -2.394686,1.413351 -0.932759,-0.260449 c 0.292238,0.747918 0.636473,1.452411 1.040763,2.098063 0.04344,0.06937 0.08774,0.137867 0.131775,0.206705 l 0.357084,-0.840775 2.446362,-1.260388 0.468706,0.731221 -2.259294,1.750281 -0.841292,-0.115755 c 0.573093,0.871762 1.194258,1.699037 1.856734,2.478397 l 0.324528,-1.0635 2.067574,-1.2516 0.448551,0.84801 -1.735811,1.54977 -1.063501,-0.0341 c 2.793504,3.26943 6.315704,5.6855 10.068119,6.95926 l -0.170532,-0.42013 0.522449,-1.30844 0.547253,0.27543 -0.355534,1.20923 -0.419612,0.28629 c 0.82349,0.27364 1.657709,0.49163 2.497522,0.65215 l -0.190169,-0.32452 0.225309,-0.92295 0.287321,0.091 -0.01344,0.88056 -0.301791,0.2775 c 0.790188,0.15071 1.585142,0.25026 2.380734,0.29559 l -0.220659,-0.25683 0.05684,-0.94878 0.299207,0.0382 0.14366,0.86868 -0.227893,0.30179 c 0.859552,0.0465 1.719496,0.0301 2.57452,-0.0527 l -0.263033,-0.21549 -0.109037,-0.94413 0.301274,-0.0139 0.292488,0.83044 -0.173116,0.33848 c 0.494995,-0.0494 0.988492,-0.12099 1.47898,-0.21549 0.251002,-0.0483 0.477083,-0.11807 0.680061,-0.20722 a 13.356725,16.212875 53.532257 0 0 1.924948,-0.49506 l -0.277503,-0.14521 -0.298173,-0.90227 0.292489,-0.0754 0.454752,0.75448 -0.0956,0.34571 a 13.356725,16.212875 53.532257 0 0 1.803507,-0.68006 l -0.307991,-0.13333 -0.364319,-0.87746 0.286287,-0.0966 0.509013,0.71831 -0.07183,0.36638 a 13.356725,16.212875 53.532257 0 0 3.718636,-2.14302 13.356725,16.212875 53.532257 0 0 1.857769,-1.56011 l -0.37879,-0.0512 -0.58704,-0.74724 0.24908,-0.17002 0.6842,0.55449 0.0326,0.41393 a 13.356725,16.212875 53.532257 0 0 1.43351,-1.52859 l -0.37207,-0.0129 -0.65785,-0.68574 0.231,-0.19379 0.73587,0.48421 0.0713,0.39894 a 13.356725,16.212875 53.532257 0 0 1.29708,-1.73685 l -0.30179,0.005 -0.69195,-0.65164 0.22118,-0.20515 0.75913,0.44597 0.0734,0.31677 a 13.356725,16.212875 53.532257 0 0 1.17305,-2.092372 l -0.3638,0.09922 -0.83251,-0.457854 0.16278,-0.254248 0.84698,0.24288 0.18914,0.363802 a 13.356725,16.212875 53.532257 0 0 0.80563,-2.059823 l -0.36535,0.09974 -0.83251,-0.457854 0.16278,-0.254248 0.84698,0.24288 0.18965,0.364835 a 13.356725,16.212875 53.532257 0 0 0.56017,-2.483569 l -0.29093,0.236678 -0.94672,-0.08268 0.0465,-0.298173 0.87282,-0.11989 0.31884,0.255282 a 13.356725,16.212875 53.532257 0 0 0.12299,-2.024683 20.205367,15.923968 31.608482 0 0 11.51093,-3.684529 20.205367,15.923968 31.608482 0 0 3.31504,-4.545459 c 0.20536,0.255725 0.38447,0.44545 0.38447,0.44545 0,0 -0.12466,-0.21588 -0.29352,-0.662491 a 20.205367,15.923968 31.608482 0 0 0.1912,-0.499712 c 0.0269,0.120599 0.0432,0.249695 0.0419,0.382923 -0.009,0.90633 1.49874,2.031237 1.12241,1.578198 -0.37634,-0.453029 -0.42713,-0.729658 -0.58911,-1.300696 -0.16196,-0.571011 0.47172,-0.157819 0.72451,0.947229 0.25278,1.10502 1.10639,1.04128 1.10639,1.04128 0,0 -0.62583,-0.214404 -0.72451,-0.947229 -0.0987,-0.732828 0.76199,-0.368447 0.56534,0.196888 -0.19656,0.565281 1.85277,2.534997 1.09813,1.579231 -0.75464,-0.955771 -0.0191,-1.233516 -0.0191,-1.233516 l 0.49971,1.045414 c 0,0 -0.0319,-0.93456 0.65681,-0.259932 0.68876,0.674632 0.56585,0.335897 0.56585,0.335897 0,0 -0.8389,-1.061884 5.2e-4,-0.228927 0.73445,0.72883 1.05939,0.448842 1.12913,0.367419 -0.0394,0.03662 -0.17905,0.08572 -0.62063,-0.228409 -0.56344,-0.400841 -0.17777,-0.346233 -0.17777,-0.346233 0,0 1.12768,0.601216 1.74821,0.537952 0.51063,-0.05207 0.65603,-0.303521 0.69143,-0.39119 h -5.1e-4 c -0.0293,0.04955 -0.14318,0.135772 -0.58343,0.08061 -0.59782,-0.07487 -0.14539,-0.117719 0.1695,-0.165365 0.27554,-0.0417 0.60969,-0.314305 0.57826,-0.375171 -0.005,-0.0089 -0.0167,-0.013 -0.0372,-0.01188 -0.16503,0.01005 -0.57408,-0.09702 -0.71882,-0.196888 -0.14476,-0.09986 0.2558,-0.122989 0.2558,-0.122989 0,0 -0.14608,-0.215484 -0.52193,-0.01757 -0.37585,0.197899 -0.76396,0.07932 -0.48628,-0.01964 0.27056,-0.09641 0.21248,-0.477938 0.20929,-0.497645 0.002,0.03357 0.002,0.305959 -0.5674,0.434083 -0.60707,0.136657 -0.80392,-0.02452 -0.50695,-0.170016 0.29697,-0.145499 0.31988,-0.463021 0.31988,-0.463021 0,0 -0.2035,0.381082 -0.69557,0.400493 -0.49202,0.01947 -1.31853,-0.405301 -0.75964,-0.335897 0.55891,0.06941 0.82941,-0.222726 0.82941,-0.222726 0,0 -0.53889,0.26035 -0.86352,0.06201 -0.32465,-0.198355 -1.18844,-0.495021 -0.60616,-0.54622 0.5823,-0.05119 0.70486,0.366386 0.70486,0.366386 0,0 0.0522,-0.459469 -0.7307,-0.674894 -0.78291,-0.215428 -1.83689,-1.053782 -0.94361,-0.540019 0.89326,0.513768 1.13895,-0.21394 1.13895,-0.21394 0,0 -0.81345,0.609149 -1.57458,-0.480074 -0.76116,-1.089222 0.96066,-0.05116 0.96066,-0.05116 0,0 -0.63789,-0.766588 -1.05937,-0.72502 -0.42148,0.04156 -1.48434,-1.290026 -0.74982,-0.716752 0.73452,0.573262 1.31878,-0.0026 1.31878,-0.0026 0,0 -0.8548,0.407192 -1.11001,-0.633037 -0.1334,-0.543791 -0.6978,-0.543404 -1.06453,-0.498677 a 20.205367,15.923968 31.608482 0 0 0.0139,-0.165882 c 0.1692,-0.08832 0.31959,-0.137036 0.45217,-0.156062 0.32855,0.233206 0.48743,0.300296 0.20205,0.0083 -0.005,-0.0055 -0.01,-0.01059 -0.015,-0.01602 0.48896,0.03096 0.67592,0.480074 0.67592,0.480074 0,0 0.0117,-0.635181 -0.85421,-0.68988 -0.59086,-0.808248 0.40728,-1.034497 0.78755,-0.486275 0.41363,0.596414 2.13734,1.207161 2.13734,1.207161 0,0 -0.61985,-0.40208 -1.58078,-1.425236 -0.96093,-1.023151 0.45701,-0.619133 1.01596,0.503329 0.55898,1.122478 3.12476,1.560287 2.37608,1.238684 -0.74866,-0.321591 -0.98486,-0.630676 -1.54358,-1.232483 -0.55872,-0.601789 0.48201,-0.491158 1.48828,0.711584 1.00648,1.202734 2.01849,0.587561 2.01849,0.587561 0,0 -0.90594,0.129401 -1.48829,-0.711584 -0.58242,-0.840971 0.70689,-0.93349 0.82011,-0.113172 0.11316,0.820284 3.87713,1.958931 2.34611,1.255738 -1.53101,-0.703186 -0.79943,-1.508435 -0.79943,-1.508435 l 1.2733,0.9741 c 0,0 -0.62757,-1.131465 0.64544,-0.733288 1.27304,0.398213 0.90899,0.05839 0.90899,0.05839 0,0 -1.70134,-0.781223 -0.14314,-0.28267 1.36338,0.436228 1.58739,-0.113145 1.62212,-0.257349 -0.0253,0.07004 -0.16682,0.218429 -0.90847,0.109038 -0.9464,-0.139598 -0.43719,-0.31471 -0.43719,-0.31471 0,0 1.76851,0.03103 2.49339,-0.437182 0.5965,-0.385303 0.61664,-0.786446 0.60513,-0.91674 -0.005,0.07931 -0.0901,0.257448 -0.66817,0.466638 -0.78377,0.283694 -0.25313,-0.05331 0.1049,-0.310059 0.31293,-0.224372 0.55252,-0.769856 0.47646,-0.826306 h -5.2e-4 c -0.0111,-0.0076 -0.0286,-0.0056 -0.0527,0.0088 -0.19706,0.116166 -0.76806,0.24185 -1.00924,0.209806 -0.24118,-0.03199 0.23771,-0.312125 0.23771,-0.312125 0,0 -0.31553,-0.174325 -0.65422,0.305924 -0.33868,0.480222 -0.89128,0.578222 -0.61133,0.281637 0.273,-0.28921 -0.0395,-0.723122 -0.0553,-0.744658 0.0238,0.04002 0.19444,0.376165 -0.42633,0.891936 -0.66212,0.550173 -1.00567,0.475085 -0.73122,0.109037 0.27444,-0.366038 0.10232,-0.771529 0.10232,-0.771529 0,0 -0.0106,0.597314 -0.60462,0.930692 -0.59402,0.33341 -1.8801,0.329526 -1.14773,0.06356 0.73237,-0.265953 0.88212,-0.795817 0.88212,-0.795817 0,0 -0.50052,0.659837 -1.02526,0.619601 -0.5248,-0.04026 -1.77571,0.136822 -1.09038,-0.292489 0.68519,-0.429281 1.09865,0.0088 1.09865,0.0088 0,0 -0.22422,-0.599488 -1.32447,-0.372587 -1.10024,0.226899 -2.92661,-0.143172 -1.50275,-0.07183 1.42386,0.07134 1.26917,-0.979785 1.26917,-0.979785 0,0 -0.61928,1.262476 -2.24224,0.398942 -1.62298,-0.863537 1.15135,-0.66766 1.15135,-0.66766 0,0 -1.26737,-0.543131 -1.76061,-0.226859 -0.49325,0.316282 -2.64127,-0.65634 -1.37563,-0.411861 0.86874,0.167819 1.30988,-0.286843 1.5012,-0.588595 0.1418,0.01698 0.24546,0.02791 0.24546,0.02791 0,0 -0.0764,-0.0271 -0.21239,-0.0832 0.0627,-0.109388 0.0899,-0.188619 0.0899,-0.188619 0,0 -0.0577,0.07318 -0.15813,0.15968 -0.35723,-0.151344 -1.04627,-0.474061 -2.01331,-1.072286 0.30737,0.06033 0.51211,0.234095 0.51211,0.234095 0,0 -0.23858,-0.489142 -0.87643,-0.465605 -1.53494,-1.012768 0.47081,-0.936375 1.58801,0.367936 1.13042,1.319527 4.72639,1.041163 3.61167,0.861963 -1.11472,-0.179211 -1.53718,-0.514891 -2.49132,-1.134814 -0.95415,-0.619921 0.4818,-0.82299 2.24069,0.453202 1.75887,1.276195 2.91042,0.107487 2.91042,0.107487 0,0 -1.17328,0.480111 -2.24018,-0.453202 -1.0669,-0.933313 0.63472,-1.493009 1.06402,-0.428915 0.42924,1.064074 5.87202,1.322187 3.57704,0.894519 -2.29481,-0.42767 -1.58336,-1.756998 -1.58336,-1.756998 l 2.03967,0.879532 c 0,0 -1.22513,-1.309033 0.62011,-1.20406 1.84524,0.104973 1.24075,-0.22841 1.24075,-0.22841 0,0 -2.55018,-0.475234 -0.28783,-0.331763 1.97939,0.125551 2.09495,-0.688488 2.09289,-0.894002 -0.0116,0.102648 -0.14986,0.350124 -1.18339,0.453719 -1.31894,0.132157 -0.69401,-0.275436 -0.69401,-0.275436 0,0 2.3865,-0.555282 3.20239,-1.42937 0.67138,-0.719311 0.56332,-1.26592 0.50384,-1.437121 0.0201,0.108281 -0.0344,0.376742 -0.74052,0.853178 -0.95738,0.64603 -0.35845,0.01388 0.0362,-0.452169 0.34515,-0.407769 0.48282,-1.223018 0.3607,-1.27124 -0.0174,-0.0069 -0.0399,0.0016 -0.0682,0.02945 -0.22554,0.222689 -0.95077,0.584788 -1.28571,0.623218 -0.33489,0.03845 0.21394,-0.500228 0.21394,-0.500228 0,0 -0.48278,-0.127285 -0.77566,0.63252 -0.2929,0.759756 -1.00257,1.078636 -0.72657,0.585494 0.27602,-0.493129 -0.33073,-0.98702 -0.33073,-0.98702 0,0 0.43719,0.384163 -0.26665,1.347204 -0.70387,0.963034 -1.19028,0.978404 -0.94517,0.393775 0.2449,-0.58463 -0.12299,-1.071769 -0.12299,-1.071769 0,0 0.18707,0.806485 -0.49867,1.455208 -0.68565,0.648771 -2.41462,1.077667 -1.52032,0.472839 0.8943,-0.604838 0.91622,-1.367358 0.91622,-1.367358 0,0 -0.44912,1.056036 -1.16789,1.179256 -0.71882,0.12321 -2.34015,0.784152 -1.56424,-0.02429 0.77593,-0.808429 1.47898,-0.359668 1.47898,-0.359668 0,0 -0.50398,-0.729363 -1.90583,-0.05271 -1.40185,0.676656 -3.98062,0.796053 -2.04329,0.410828 1.93751,-0.38521 1.37408,-1.74563 1.37408,-1.74563 0,0 -0.40514,1.90605 -2.87786,1.293978 -2.47274,-0.61207 1.32137,-1.286227 1.32137,-1.286227 0,0 -1.88679,-0.301775 -2.44275,0.289905 -0.55596,0.591668 -3.77086,0.01021 -1.98748,-0.08888 1.78329,-0.09908 1.90118,-1.667082 1.90118,-1.667082 0,0 -0.7208,1.665875 -2.4014,0.486275 -1.68061,-1.179602 -3.13821,2.510391 -2.38642,0.447001 0.75179,-2.063391 2.32854,-1.284676 2.32854,-1.284676 0,0 -1.0445,-1.242873 -2.75074,0.699699 -1.23046,1.400889 -2.45775,1.537764 -3.04839,1.505851 a 20.205367,15.923968 31.608482 0 0 -3.39566,-3.856612 20.205367,15.923968 31.608482 0 0 -11.40344,-5.977929 c 0.50041,-0.399061 1.07849,-0.301274 1.07849,-0.301274 0,0 -0.68975,-0.66854 -1.44642,0.215491 a 20.205367,15.923968 31.608482 0 0 -0.15865,-0.03721 c 0.2265,-0.354358 0.5257,-0.758519 0.83457,-1.042314 0.88888,-0.816776 0.50798,-1.389062 0.50798,-1.389062 0,0 0.1222,0.635363 -0.68264,0.963248 -0.80484,0.327878 0.13537,-0.65145 0.42995,-1.134297 0.29458,-0.48283 1.18442,-0.504362 1.18442,-0.504362 0,0 -0.55616,-0.202762 -1.24799,0.268717 -0.69194,0.471498 0.1123,-0.652152 0.77618,-0.960665 0.66377,-0.308592 1.19166,0.05736 1.19166,0.05736 0,0 -0.24584,-0.404625 -0.73742,-0.395325 -0.49157,0.0093 -0.34118,-0.337257 0.55449,-0.568957 0.89567,-0.231678 1.04748,0.19327 1.04748,0.19327 0,0 -0.18255,-0.578182 -0.61702,-0.520382 -0.43447,0.05779 -0.001,-0.362967 0.63046,-0.356567 0.63152,0.0064 0.67747,-0.377755 0.67747,-0.377755 0,0 -0.54523,0.241273 -0.42168,0.01085 0.12357,-0.230417 0.59192,-0.649456 0.81701,-0.748275 0.0284,-0.01221 0.0409,-0.02627 0.0408,-0.04082 2e-4,-0.101794 -0.62684,-0.236454 -1.01957,-0.104387 -0.44888,0.150898 -1.07615,0.402326 -0.33642,-0.102836 0.54555,-0.372591 0.75453,-0.335424 0.82683,-0.289905 -0.10639,-0.09188 -0.46909,-0.32611 -1.17978,-0.04806 -0.86362,0.337894 -1.94716,1.899626 -1.94716,1.899626 0,0 -0.47281,0.33358 0,-0.579293 0.37048,-0.715299 0.5888,-0.74448 0.6661,-0.72347 -0.14755,-0.06031 -0.76772,-0.209671 -1.24385,1.253154 -0.54417,1.671792 -0.15658,-0.302307 -0.15658,-0.302307 0,0 -0.0679,-0.53173 -0.52038,0.828373 -0.45252,1.36011 -1.0449,0.102836 -1.0449,0.102836 l 0.0501,1.721859 c 0,0 -1.16204,0.131786 -0.81339,-1.644861 0.34865,-1.776652 -1.02291,2.220988 -0.37879,2.834969 0.64401,0.614044 -0.24654,1.680076 -0.61391,0.643888 -0.002,-0.0046 -0.003,-0.0089 -0.005,-0.01344 0.0417,-0.275952 -0.007,-0.620595 -0.0739,-0.918807 0.0972,-0.505326 0.39326,-0.812353 0.39326,-0.812353 0,0 -0.26612,0.113252 -0.49971,0.407727 -0.0481,-0.158845 -0.0863,-0.263033 -0.0863,-0.263033 0,0 0.003,0.162792 -0.002,0.386023 -0.18741,0.291383 -0.32296,0.720762 -0.22376,1.331185 -0.0836,0.09633 -0.19867,0.07143 -0.3545,-0.158647 0.0248,-0.136634 2.9e-4,-0.153275 -0.05167,-0.08062 -0.0451,-0.07548 -0.09349,-0.166823 -0.145211,-0.276469 -0.842806,-1.786844 0.544671,-2.385901 0.544671,-2.385901 0,0 -1.120235,-0.221045 -1.117246,1.311031 0.0026,1.532069 -0.300059,-0.447203 5.17e-4,-1.616439 0.30059,-1.169238 -0.331246,-1.441255 -0.331246,-1.441255 0,0 0.44876,0.466383 -0.04754,1.179773 -0.496306,0.713386 -0.241349,-0.620068 -0.257349,-1.185458 -0.01599,-0.565365 0.718819,-1.068152 0.718819,-1.068152 0,0 -0.576763,0.132528 -0.900203,0.904855 -0.323437,0.772338 -0.261046,-0.60745 0.127641,-1.227832 0.388647,-0.620439 1.030428,-0.600997 1.030428,-0.600997 0,0 -0.426891,-0.205795 -0.834058,0.06976 -0.407136,0.275605 -0.46933,-0.09654 0.155546,-0.778764 0.585841,-0.639548 0.937594,-0.439403 0.979269,-0.411861 -0.02217,-0.01796 -0.471698,-0.375763 -0.796334,-0.09767 -0.332867,0.285135 -0.19922,-0.303181 0.33383,-0.641821 0.533033,-0.338661 0.362768,-0.686263 0.362768,-0.686263 0,0 -0.325882,0.499788 -0.347782,0.239262 -0.0219,-0.260541 0.142582,-0.867313 0.277502,-1.072803 0.0172,-0.02573 0.0204,-0.04468 0.0124,-0.05684 l -5.17e-4,5.17e-4 c -0.05529,-0.08548 -0.654184,0.142983 -0.911573,0.467672 -0.294227,0.371073 -0.683617,0.923252 -0.33848,0.09663 0.25453,-0.609638 0.450487,-0.691781 0.535884,-0.692981 -0.01741,-0.0024 -0.03962,-0.0051 -0.06563,-0.0057 -0.01105,-2.5e-4 -0.02269,-3.66e-4 -0.03514,0 z m 0.257349,1.079004 c 0,0 -3.12431,4.151258 0.03359,9.585462 0.01013,0.01744 0.01943,0.03431 0.02946,0.05168 a 20.205367,15.923968 31.608482 0 0 -0.393258,0.0021 20.205367,15.923968 31.608482 0 0 -1.003556,0.06718 c -0.175974,-0.559793 -0.354052,-1.166878 -0.528133,-1.831929 -1.224067,-4.676446 1.861902,-7.874455 1.861902,-7.874455 z m -1.893425,0.72192 c -0.0062,4e-4 -0.01449,0.0018 -0.02481,0.0052 0.01864,-0.0035 0.02903,-0.0049 0.03204,-0.0052 -0.0017,-5e-5 -0.0041,-2e-4 -0.0072,0 z m 10.772983,2.311487 c 0.0229,0.01978 0.0346,0.03359 0.0346,0.03359 0,0 -0.009,-0.01745 -0.0346,-0.03359 z m -2.46083,0.549837 c 0.0203,0.0084 0.032,0.01447 0.032,0.01447 0,0 -0.011,-0.009 -0.032,-0.01447 z m 2.00505,0.435116 c 0,0 -3.73741,1.362266 -4.88084,5.908166 A 20.205367,15.923968 31.608482 0 0 101.6739,57.85745 c 0.0184,-0.05642 0.0364,-0.111865 0.0553,-0.168982 0.023,-0.06945 0.047,-0.137852 0.0713,-0.205672 0.13649,-0.17944 0.28164,-0.282153 0.28164,-0.282153 0,0 -0.0879,0.02547 -0.21032,0.08837 1.6317,-4.247383 5.70818,-5.189864 5.70818,-5.189864 z M 91.600094,55.94904 a 0.37417734,0.37417734 0 0 1 0.38964,0.357601 v 10e-4 a 0.37417734,0.37417734 0 0 1 -0.358118,0.389124 0.37417734,0.37417734 0 0 1 -0.38964,-0.358635 0.37417734,0.37417734 0 0 1 0.358118,-0.389123 z m 5.405354,8.921936 a 3.0502467,1.8851563 33.550574 0 1 2.911967,1.175639 3.0502467,1.8851563 33.550574 0 1 0.607195,3.133142 3.0502467,1.8851563 33.550574 0 1 -3.831287,-0.874882 3.0502467,1.8851563 33.550574 0 1 -0.625285,-3.137277 l 0.0155,-0.01085 a 3.0502467,1.8851563 33.550574 0 1 0.921907,-0.28577 z m 15.529282,2.579687 a 5.7794047,5.7794047 0 0 1 5.7795,5.779492 5.7794047,5.7794047 0 0 1 -5.7795,5.779493 5.7794047,5.7794047 0 0 1 -5.77897,-5.779493 5.7794047,5.7794047 0 0 1 5.77897,-5.779492 z m 26.89914,0.193787 c 0,0 -3.25985,4.712565 -9.48211,4.351672 -4.49356,-0.260602 -7.14337,-1.03241 -9.30951,-0.931726 a 20.205367,15.923968 31.608482 0 0 -1.12035,-2.020548 c 1.4874,-0.323016 3.93789,-0.320376 7.78609,0.990637 7.67084,2.613247 12.12588,-2.390035 12.12588,-2.390035 z m -26.51363,1.039213 a 4.6235237,4.6235237 0 0 0 -4.62349,4.62349 4.6235237,4.6235237 0 0 0 4.62349,4.623491 4.6235237,4.6235237 0 0 0 4.62349,-4.623491 4.6235237,4.6235237 0 0 0 -4.62349,-4.62349 z m 26.07903,1.525488 c 0,0 0.002,0.01699 0.003,0.04547 0.003,-0.02778 -0.003,-0.04547 -0.003,-0.04547 z m -23.25336,0.04134 a 1.2329396,1.2329396 0 0 1 1.233,1.233 1.2329396,1.2329396 0 0 1 -1.233,1.233 1.2329396,1.2329396 0 0 1 -1.233,-1.233 1.2329396,1.2329396 0 0 1 1.233,-1.233 z m -40.364465,0.189653 0.852145,1.642794 -2.550232,6.253881 -0.716236,-0.278019 0.772563,-6.490043 z m 47.980015,2.959509 c 0.10137,3.71e-4 0.20604,0.01769 0.30851,0.05219 -0.072,0.0429 -0.14567,0.08949 -0.22272,0.142627 -0.26205,0.180724 -0.51138,0.310693 -0.74518,0.40411 -0.0735,-0.358968 0.26507,-0.600372 0.65939,-0.59893 z m 0.64906,0.249597 c 0.11235,0.09515 0.26116,0.181925 0.43356,0.259933 -0.77948,0.202832 -1.43471,1.098484 -0.8046,0.168982 0.12307,-0.181557 0.24777,-0.321296 0.37104,-0.428915 z m 1.41748,0.579293 c 0.55934,0.136153 1.12446,0.221738 1.48157,0.267684 -0.30212,0.219952 -0.85305,0.425632 -1.48157,-0.267684 z m -3.40547,0.713135 c 1.08205,0.175467 2.58226,0.706037 4.56974,1.99316 4.90913,3.178963 8.90799,0.460954 8.90799,0.460954 0,0 -3.11121,2.724755 -7.40265,1.377177 -2.71797,-0.853455 -4.37393,-1.73257 -5.77484,-2.145606 a 20.205367,15.923968 31.608482 0 0 -0.30024,-1.685685 z m -52.152893,0.671793 1.43092,0.219625 1.063501,3.190503 -0.364835,0.853178 -2.02985,-2.689241 z m 66.615573,1.930115 c 0,0 0.003,0.01625 0.006,0.04444 0.002,-0.02817 -0.006,-0.04444 -0.006,-0.04444 z m -1.74098,1.570964 c 0,0 -0.002,0.01204 -0.004,0.03256 0.007,-0.01893 0.004,-0.03256 0.004,-0.03256 z m -12.31914,0.148311 c 0.0436,0.0346 0.0881,0.07013 0.1297,0.102319 -0.0437,0.0033 -0.0889,0.0072 -0.13591,0.01292 a 20.205367,15.923968 31.608482 0 0 0.006,-0.115239 z m -44.390577,0.03514 1.005107,0.377238 -0.485242,0.926559 -3.864363,1.286743 -0.24288,-0.652157 z m 6.764962,0.02584 a 3.1922002,1.0640668 0 0 0 -3.184818,1.065568 3.1922002,1.0640668 0 0 0 0.01912,0.110588 1.9644309,0.98221546 6.8419 0 0 -0.366386,0.486792 1.9644309,0.98221546 6.8419 0 0 0.17725,0.486275 1.9644309,0.98221546 22.52057 0 0 -0.273368,0.285254 1.9644309,0.98221546 22.52057 0 0 0.187585,0.762227 1.9644309,0.98221546 22.52057 0 0 -0.03927,0.07493 1.9644309,0.98221546 22.52057 0 0 1.440222,1.658814 1.9644309,0.98221546 22.52057 0 0 0.164848,0.05943 13.356725,16.212875 53.532257 0 1 0.204122,-0.155546 13.356725,16.212875 53.532257 0 1 4.436939,-2.450497 20.205367,15.923968 31.608482 0 1 -1.408183,-2.282548 3.1922002,1.0640668 0 0 0 -1.358057,-0.101286 z m 37.435955,1.646411 c 0.34246,0.423911 0.70434,0.947793 1.07901,1.595769 2.11602,3.659646 5.58364,3.223576 5.58364,3.223576 0,0 -2.89805,0.732039 -5.21829,-1.545643 -0.73098,-0.717585 -1.28883,-1.35074 -1.76113,-1.897558 a 20.205367,15.923968 31.608482 0 0 0.31677,-1.376144 z m -43.180307,0.655258 1.051099,0.394291 -0.507463,0.968416 -4.041614,1.344621 -0.253731,-0.681095 z m -10.693921,2.039152 2.582788,0.02636 0.03411,0.702282 -2.533179,0.655258 -0.943612,-0.603064 z m 10.942485,0.664042 a 0.66518963,1.8690802 53.191226 0 0 -1.743047,0.828373 0.66518963,1.8690802 53.191226 0 0 -0.686263,0.687297 2.1924938,2.2796765 0 0 0 -0.114204,0.148828 3.9246903,1.9758363 70.002514 0 0 0.05839,4.442106 3.9246903,1.9758363 70.002514 0 0 2.502173,2.685107 1.4329452,2.9819536 37.538646 0 0 2.889746,-1.858284 1.4329452,2.9819536 37.538646 0 0 0.763261,-2.605009 2.1141832,2.1141832 0 0 0 -1.585433,-1.58595 0.66518963,1.8690802 16.476858 0 0 -0.254248,-1.705322 0.66518963,1.8690802 16.476858 0 0 -0.166398,0.04754 0.66518963,1.8690802 31.923464 0 0 -0.211874,-0.516764 0.66518963,1.8690802 31.923464 0 0 -0.468705,0.135392 0.66518963,1.8690802 31.923464 0 0 -0.216007,-0.415478 0.66518963,1.8690802 31.923464 0 0 -0.419096,0.104386 0.66518963,1.8690802 53.191226 0 0 -0.09302,-0.322461 0.66518963,1.8690802 53.191226 0 0 -0.255281,-0.06976 z m 48.542773,2.319238 c 0,0 -0.005,0.007 -0.0139,0.01912 0.0107,-0.01009 0.0139,-0.01912 0.0139,-0.01912 z M 97.871029,87.19106 a 1.1693041,4.3264251 84.831877 0 1 1.206644,0.04806 3.0635769,3.0635769 0 0 1 3.215307,2.51871 l 0.032,0.23306 a 3.0635769,3.0635769 0 0 1 -2.685624,3.346049 3.0635769,3.0635769 0 0 1 -0.650089,0.0072 4.3264251,1.1693041 10.886214 0 1 -2.147673,-0.171049 4.3264251,1.1693041 10.886214 0 1 -4.522204,-1.888773 4.3264251,1.1693041 10.886214 0 1 0.733288,-0.644406 4.3264251,1.1693041 7.2706672 0 1 -0.783415,-0.657841 4.3264251,1.1693041 7.2706672 0 1 0.668177,-0.682645 1.1693041,4.3264251 84.831877 0 1 -0.47439,-0.334863 1.1693041,4.3264251 84.831877 0 1 3.475757,-1.63556 1.1693041,4.3264251 84.831877 0 1 1.932182,-0.137976 z m 0.077,0.196371 a 1.1013667,4.0750568 84.831877 0 0 -1.819528,0.130224 1.1013667,4.0750568 84.831877 0 0 -3.274218,1.540475 1.1013667,4.0750568 84.831877 0 0 0.447001,0.315226 4.0750568,1.1013667 7.2706672 0 0 -0.629419,0.643372 4.0750568,1.1013667 7.2706672 0 0 0.737939,0.6196 4.0750568,1.1013667 10.886214 0 0 -0.690397,0.606681 4.0750568,1.1013667 10.886214 0 0 4.259172,1.77922 4.0750568,1.1013667 10.886214 0 0 2.023132,0.16123 2.8855809,2.8855809 0 0 0 0.612366,-0.0072 2.8855809,2.8855809 0 0 0 2.529563,-3.151229 l -0.0305,-0.219625 A 2.8855809,2.8855809 0 0 0 99.0849,87.43294 1.1013667,4.0750568 84.831877 0 0 97.948535,87.38747 Z m -7.310149,3.235461 a 0.45602861,1.1982578 78.41365 0 1 0.668177,0.265617 0.45602861,1.1982578 78.41365 0 1 -0.02377,0.137976 1.1327474,2.4681346 61.072709 0 1 0.01188,0.01809 0.57013136,0.92249191 60.846 0 1 0.648539,0.203605 0.57013136,0.92249191 60.846 0 1 -0.103353,0.583944 0.55204076,0.89322072 51.20193 0 1 0.746208,0.05168 0.55204076,0.89322072 51.20193 0 1 -0.05374,0.661975 0.50632066,0.81924409 51.20193 0 1 0.373104,-0.0062 0.5971759,1.371681 31.03189 0 1 0.09147,0.03204 0.5971759,1.371681 31.03189 0 1 -0.192237,1.480529 l -0.0021,0.0036 a 0.5971759,1.371681 31.03189 0 1 -0.248563,0.353466 4.2007785,2.5962238 29.78164 0 1 0.943095,0.442867 4.2007785,2.5962238 29.78164 0 1 2.518709,3.970301 3.7316658,3.7316658 0 0 1 -3.724321,3.602878 3.7316658,3.7316658 0 0 1 -3.080948,-1.62212 4.2007785,2.2651694 73.32265 0 1 -1.193209,-2.075843 c -0.463725,-1.028619 -1.286639,-3.101915 -1.199927,-4.714441 a 2.6075482,2.6075482 0 0 1 -0.0052,-0.12454 2.6075482,2.6075482 0 0 1 0.136426,-0.829407 1.1327474,2.4681346 61.072709 0 1 0.4408,-0.807186 2.6075482,2.6075482 0 0 1 0.515214,-0.488342 1.1327474,2.4681346 61.072709 0 1 0.704867,-0.470255 1.1327474,2.4681346 61.072709 0 1 0.58291,-0.27802 0.45602861,1.1982578 78.41365 0 1 0.846977,-0.331246 0.45602861,1.1982578 78.41365 0 1 0.598929,-0.06098 z m -0.08682,0.225309 a 0.42381781,1.1136209 78.41365 0 0 -0.556555,0.05684 0.42381781,1.1136209 78.41365 0 0 -0.787032,0.307991 1.0527377,2.2938022 61.072709 0 0 -0.541569,0.258382 1.0527377,2.2938022 61.072709 0 0 -0.655257,0.436666 2.4233685,2.4233685 0 0 0 -0.479041,0.453719 1.0527377,2.2938022 61.072709 0 0 -0.409277,0.750342 2.4233685,2.4233685 0 0 0 -0.127124,0.771012 2.4233685,2.4233685 0 0 0 0.0052,0.115756 c -0.08059,1.498634 0.683646,3.42515 1.114661,4.381128 a 3.9040637,2.1051731 73.32265 0 0 1.108976,1.929603 3.468086,3.468086 0 0 0 2.863391,1.5074 3.468086,3.468086 0 0 0 3.461288,-3.348637 3.9040637,2.412844 29.78164 0 0 -2.340426,-3.689697 3.9040637,2.412844 29.78164 0 0 -0.876949,-0.411344 0.55499541,1.2747947 31.03189 0 0 0.230994,-0.328663 l 0.0021,-0.0031 a 0.55499541,1.2747947 31.03189 0 0 0.1788,-1.376144 0.55499541,1.2747947 31.03189 0 0 -0.08475,-0.02997 0.47055757,0.76137819 51.20193 0 0 -0.347266,0.0057 0.51304831,0.83012961 51.20193 0 0 0.05013,-0.61495 0.51304831,0.83012961 51.20193 0 0 -0.693497,-0.04806 0.52986111,0.85733328 60.846 0 0 0.09612,-0.542603 0.52986111,0.85733328 60.846 0 0 -0.602547,-0.189135 1.0527377,2.2938022 61.072709 0 0 -0.01137,-0.01705 0.42381781,1.1136209 78.41365 0 0 0.02222,-0.128157 0.42381781,1.1136209 78.41365 0 0 -0.621151,-0.247014 z m -19.654097,0.716753 0.120406,0.849043 -2.230872,1.366325 -1.079004,-0.301273 0.594279,-0.997355 z m 35.308437,0.709 0.31265,0.273885 -0.30696,0.227377 -0.94206,-0.124541 0.0594,-0.296106 z m -30.660659,9.160686 0.391707,0.5457 -1.053165,1.75751 -0.857829,0.18191 0.05064,-0.90796 z m 1.731677,2.13578 0.378272,0.40049 -0.661976,1.54513 -0.677478,0.24288 -0.05943,-0.74414 z m 21.441069,0.96583 0.639754,0.60565 v 0.41548 l -0.373621,-0.0806 -0.527616,-0.79014 z m -19.160588,0.8754 0.360185,0.38138 -0.383439,1.28054 -0.535368,0.29094 -0.157613,-0.53796 z m 17.123503,0.47853 0.607714,0.63717 -0.02067,0.41496 -0.36897,-0.0992 -0.487309,-0.81597 z m -5.140772,1.94458 0.310059,0.82424 -0.181901,0.37362 -0.300757,-0.23564 -0.128674,-0.94155 z" /></g></svg>
